# xmcd
#
# Track frame offsets:
#	150
#	7029
#	23500
#	40033
#	58847
#	84145
#	101870
#	115326
#	142015
#	166149
#	186653
#	202651
#	227970
#
# Disc length: 3103 seconds
#
# Revision: 0
# Processed by: cddbd v1.5.2PL0 Copyright (c) Steve Scherf et al.
# Submitted via: dBpowerAMP V4.0
#
DISCID=a80c1d0d
DTITLE=Nathan Miller - Bombs and A Hustle
DYEAR=2006
DGENRE=Blues
TTITLE0=1136
TTITLE1=Desda
TTITLE2=3 Chords
TTITLE3=Sunshine
TTITLE4=Away (feat. Debra G)
TTITLE5=Heaven's Steps
TTITLE6=Dust
TTITLE7=Helen Keller
TTITLE8=Lilies
TTITLE9=Music's My Religion
TTITLE10=Lightning and Love
TTITLE11=Bombs and A Hustle
TTITLE12=Untitled
EXTD=The artist is Nathan Miller.  He is a "Minnesota" local, and plays a lot with the Root City Band
EXTT0=
EXTT1=
EXTT2=
EXTT3=
EXTT4=
EXTT5=
EXTT6=
EXTT7=
EXTT8=
EXTT9=
EXTT10=
EXTT11=
EXTT12=
PLAYORDER=
